<svg fill="#000000" width="800px" height="800px" viewBox="0 0 24 24" version="1.2" baseProfile="tiny" xmlns="http://www.w3.org/2000/svg">
    <path d="M16.972 6.251c-.967-.538-2.185-.188-2.72.777l-3.713 6.682-2.125-2.125c-.781-.781-2.047-.781-2.828 0-.781.781-.781 2.047 0 2.828l4 4c.378.379.88.587 1.414.587l.277-.02c.626-.087 1.166-.46 1.471-1.009l5-9c.535-.967.187-2.185-.776-2.72zM22.962 10.458c-.272-3.18-1.556-6.038-3.765-8.247-2.209-2.208-5.067-3.492-8.247-3.764C7.224-.826 3.646.202 1.038 2.81c-2.608 2.608-3.636 6.186-3.363 9.912.272 3.18 1.556 6.038 3.765 8.247 2.209 2.208 5.067 3.492 8.247 3.764 3.726.273 7.304-.756 9.912-3.364 2.608-2.608 3.636-6.186 3.363-9.912z"/>
</svg>